<svg xmlns="http://www.w3.org/2000/svg" width="20" height="20" fill="none"><defs><clipPath id="a"><path fill="#fff" fill-opacity="0" d="M0 20h20V0H0z"/></clipPath></defs><g clip-path="url(#a)"><path fill="#000" d="M2.373 5H14.99c.156 0 .307.026.45.078.142.052.273.13.39.234.117.105.211.225.283.362.073.137.114.276.127.42v.02l1.114 10a.85.85 0 010 .263 1.628 1.628 0 01-.06.244 1.16 1.16 0 01-.097.244.924.924 0 01-.156.205.759.759 0 01-.186.196.839.839 0 01-.224.117c-.092.039-.18.068-.264.088-.084.02-.166.029-.244.029H1.24c-.078 0-.16-.01-.244-.03a1.598 1.598 0 01-.264-.087.838.838 0 01-.224-.117.759.759 0 01-.186-.196.924.924 0 01-.156-.205 1.156 1.156 0 01-.098-.244 1.626 1.626 0 01-.058-.244.853.853 0 010-.264l1.113-10v-.02c.014-.143.055-.282.127-.42a1.278 1.278 0 01.673-.595A1.31 1.31 0 012.373 5zM14.99 6.25H2.373l-1.113 10h14.844l-1.114-10zM8.682 3.125c-.327 0-.645.062-.957.186a2.393 2.393 0 00-1.358 1.357 2.593 2.593 0 00-.185.957v2.5c0 .17-.063.316-.186.44a.598.598 0 01-.44.185.598.598 0 01-.439-.186.603.603 0 01-.185-.439v-2.5c0-.495.093-.973.283-1.436.19-.462.459-.869.81-1.22a3.768 3.768 0 014.092-.81c.463.188.87.458 1.22.81.353.351.622.758.811 1.22.19.463.284.941.284 1.436v2.5c0 .17-.063.316-.186.44a.598.598 0 01-.44.185.598.598 0 01-.439-.186.603.603 0 01-.185-.439v-2.5c0-.325-.063-.645-.186-.957A2.394 2.394 0 009.64 3.311a2.575 2.575 0 00-.957-.186z"/></g></svg>