<svg width="53.813" height="53.813" fill="none" xmlns="http://www.w3.org/2000/svg"><path d="M35.328 31.938c0 .145-.01.291-.027.437a3.268 3.268 0 00-.028.383l8.75 10.226a21.44 21.44 0 002.68-3.39 23.085 23.085 0 002.024-3.883 23.09 23.09 0 001.257-4.266 23.14 23.14 0 00.438-4.539c0-3.245-.62-6.289-1.86-9.133-1.24-2.88-2.915-5.377-5.03-7.492-2.116-2.114-4.612-3.792-7.493-5.031-2.844-1.24-5.889-1.86-9.133-1.86-2.478 0-4.85.365-7.11 1.094a23.65 23.65 0 00-6.233 3.063l7.656 8.914a6.885 6.885 0 011.86-.957 6.548 6.548 0 012.132-.356v-3.335c0-.474.164-.876.492-1.204a1.635 1.635 0 011.203-.492c.475 0 .875.164 1.203.492.328.329.493.73.493 1.204v3.335c1.859 0 3.445.657 4.757 1.97 1.313 1.312 1.97 2.898 1.97 4.757 0 .474-.165.875-.493 1.203a1.636 1.636 0 01-1.203.492c-.475 0-.875-.164-1.203-.492a1.637 1.637 0 01-.492-1.203c0-.948-.329-1.75-.985-2.406-.656-.657-1.44-.985-2.351-.985H25.21a3.38 3.38 0 00-.957.137c-.31.091-.592.228-.848.41l5.797 6.727 2.297.547c1.13.291 2.05.893 2.762 1.804a4.931 4.931 0 011.066 3.118v.71zm-1.422 4.101a6.29 6.29 0 01-2.27 1.914 6.586 6.586 0 01-3.034.711V42c0 .474-.165.875-.493 1.203a1.636 1.636 0 01-1.203.492c-.474 0-.875-.164-1.203-.492A1.637 1.637 0 0125.211 42v-3.336c-1.86 0-3.445-.656-4.758-1.969-1.312-1.312-1.969-2.898-1.969-4.758 0-.473.164-.875.493-1.203a1.635 1.635 0 011.203-.492c.474 0 .875.164 1.203.492.328.328.492.73.492 1.203 0 .948.328 1.75.984 2.407.657.656 1.44.984 2.352.984h3.39c.657 0 1.249-.173 1.778-.52a3.5 3.5 0 001.23-1.394l-4.21-4.648-5.087-1.258a4.987 4.987 0 01-2.761-1.805 4.931 4.931 0 01-1.067-3.117v-.711c0-.438.045-.857.137-1.258.092-.4.21-.802.356-1.203L10.5 10.062a22.737 22.737 0 00-2.953 3.5 24.285 24.285 0 00-2.242 4.047 23.005 23.005 0 00-1.422 4.485 23.427 23.427 0 00-.492 4.812c0 3.245.619 6.29 1.859 9.133 1.24 2.88 2.916 5.378 5.031 7.492 2.115 2.115 4.612 3.792 7.492 5.032 2.844 1.239 5.89 1.859 9.133 1.859 2.881 0 5.606-.483 8.176-1.45A23.561 23.561 0 0042 44.954l-8.094-8.914zM21.875 22.641l1.477 1.64-.22-.054a1.51 1.51 0 01-.902-.547 1.6 1.6 0 01-.355-1.04zM26.906 0c3.719 0 7.201.71 10.446 2.133 3.28 1.422 6.134 3.345 8.558 5.77 2.424 2.424 4.348 5.277 5.77 8.558 1.422 3.245 2.133 6.727 2.133 10.445 0 3.719-.711 7.2-2.133 10.446-1.422 3.28-3.346 6.134-5.77 8.558-2.424 2.425-5.277 4.348-8.558 5.77-3.245 1.422-6.727 2.133-10.446 2.133-3.718 0-7.2-.711-10.445-2.133-3.281-1.422-6.135-3.345-8.559-5.77-2.423-2.424-4.347-5.277-5.77-8.558C.712 34.107 0 30.625 0 26.906c0-3.718.71-7.2 2.133-10.445 1.422-3.281 3.346-6.134 5.77-8.559 2.423-2.424 5.277-4.347 8.558-5.77C19.705.712 23.188 0 26.906 0z" fill="#2EBB77"/></svg>