<svg width="56" height="38.828" fill="none" xmlns="http://www.w3.org/2000/svg"><path d="M55.617 19.25l-3.281-4.21L47.03 4.483a1.632 1.632 0 00-.629-.683 1.823 1.823 0 00-.957-.246h-7.492V1.75c0-.474-.174-.884-.52-1.23a1.68 1.68 0 00-1.23-.52H6.781c-.51 0-.94.173-1.285.52-.346.346-.52.756-.52 1.23 0 .51.174.939.52 1.285.346.347.775.52 1.285.52h27.617v12.304c0 .51.174.94.52 1.286.346.346.775.52 1.285.52h13.672l2.57 3.28v9.133h-3.28c-.401-1.531-1.231-2.807-2.49-3.828-1.257-1.02-2.724-1.531-4.402-1.531-1.64 0-3.09.51-4.347 1.531-1.258 1.02-2.088 2.297-2.489 3.828h-10.39c-.4-1.531-1.23-2.807-2.488-3.828-1.258-1.02-2.725-1.531-4.403-1.531-1.64 0-3.09.51-4.347 1.531-1.258 1.02-2.088 2.297-2.489 3.828H6.781c-.51 0-.94.173-1.285.52-.346.346-.52.756-.52 1.23s.174.884.52 1.23c.346.347.775.52 1.285.52h4.594c.4 1.531 1.23 2.79 2.488 3.774a6.78 6.78 0 004.293 1.476c1.64 0 3.09-.492 4.348-1.476 1.258-.985 2.088-2.243 2.488-3.774h10.5c.4 1.531 1.23 2.79 2.489 3.774a6.78 6.78 0 004.292 1.476c1.641 0 3.09-.492 4.348-1.476 1.258-.985 2.088-2.243 2.488-3.774h5.141a1.68 1.68 0 001.23-.52c.346-.346.52-.756.52-1.23V20.344a1.88 1.88 0 00-.082-.547 1.625 1.625 0 00-.3-.547zM44.407 7.055l3.5 7.054h-9.954V7.055h6.453zm-26.25 28.218c-.948 0-1.768-.337-2.462-1.011-.693-.675-1.039-1.504-1.039-2.489 0-.984.346-1.823 1.04-2.515.693-.693 1.513-1.04 2.46-1.04.985 0 1.823.347 2.516 1.04.693.692 1.039 1.531 1.039 2.515 0 .985-.346 1.814-1.04 2.489-.692.674-1.53 1.011-2.515 1.011zm24.116 0c-.947 0-1.767-.337-2.46-1.011-.694-.675-1.04-1.504-1.04-2.489 0-.984.346-1.823 1.04-2.515.693-.693 1.513-1.04 2.46-1.04.985 0 1.823.347 2.516 1.04a3.424 3.424 0 011.04 2.515c0 .985-.347 1.814-1.04 2.489-.693.674-1.531 1.011-2.516 1.011zM4.648 21.11a1.68 1.68 0 00-1.23.52c-.346.346-.52.756-.52 1.23 0 .51.174.94.52 1.285.346.347.756.52 1.23.52h8.094c.51 0 .94-.173 1.285-.52.346-.346.52-.774.52-1.285 0-.474-.174-.884-.52-1.23a1.745 1.745 0 00-1.285-.52H4.648zm12.196-6.945c.474 0 .884.173 1.23.52.346.346.52.774.52 1.285 0 .474-.174.884-.52 1.23-.346.347-.756.52-1.23.52H1.75a1.68 1.68 0 01-1.23-.52A1.684 1.684 0 010 15.97c0-.51.174-.939.52-1.285a1.68 1.68 0 011.23-.52h15.094zM4.648 7.22a1.68 1.68 0 00-1.23.52c-.346.346-.52.774-.52 1.284 0 .474.174.884.52 1.23.346.347.756.52 1.23.52h15.04c.51 0 .939-.173 1.285-.52.345-.346.52-.756.52-1.23 0-.51-.175-.938-.52-1.285a1.745 1.745 0 00-1.285-.52H4.648z" fill="#2EBB77"/></svg>