<svg width="20" height="18" fill="none" xmlns="http://www.w3.org/2000/svg"><defs><filter id="a" x="0" y="0" width="20" height="18" filterUnits="userSpaceOnUse" color-interpolation-filters="sRGB"><feFlood flood-opacity="0" result="BackgroundImageFix"/><feColorMatrix in="SourceAlpha" values="0 0 0 0 0 0 0 0 0 0 0 0 0 0 0 0 0 0 127 0" result="hardAlpha"/><feOffset dy="4"/><feGaussianBlur stdDeviation="1.333"/><feComposite in2="hardAlpha" operator="out" k2="-1" k3="1"/><feColorMatrix values="0 0 0 0 0 0 0 0 0 0 0 0 0 0 0 0 0 0 0.25 0"/><feBlend in2="BackgroundImageFix" result="effect_dropShadow_1"/><feBlend in="SourceGraphic" in2="effect_dropShadow_1" result="shape"/></filter></defs><g filter="url(#a)"><path d="M4 5a.48.48 0 01.148-.352A.483.483 0 014.5 4.5h11c.135 0 .252.05.352.148.1.1.148.216.148.352a.478.478 0 01-.148.352.483.483 0 01-.352.148h-11a.483.483 0 01-.352-.148A.478.478 0 014 5zM10.64.14A.521.521 0 0111 0c.135 0 .256.047.36.14l4.5 4.5c.093.105.14.224.14.36a.522.522 0 01-.14.36l-4.5 4.5A.521.521 0 0111 10a.521.521 0 01-.36-.14.522.522 0 01-.14-.36c0-.136.047-.255.14-.36L14.798 5 10.64.86A.522.522 0 0110.5.5c0-.135.047-.255.14-.36z" fill="#FFF"/></g></svg>