<svg width="56" height="57" fill="none" xmlns="http://www.w3.org/2000/svg"><defs><clipPath id="a"><path transform="matrix(1 0 0 -1 0 57)" fill="#fff" fill-opacity="0" d="M0 0h56v57H0z"/></clipPath></defs><g clip-path="url(#a)"><path d="M52.719 15.266v5.195c.947.328 1.732.92 2.351 1.777.62.857.93 1.814.93 2.871v19.907c0 1.349-.482 2.506-1.45 3.472-.966.966-2.122 1.45-3.472 1.45h-4.922v4.921c0 .438-.164.82-.492 1.149-.328.328-.71.492-1.148.492H11.484c-.437 0-.82-.164-1.148-.492-.328-.328-.492-.711-.492-1.149v-4.922H4.922c-1.35 0-2.506-.483-3.473-1.449C.482 47.522 0 46.365 0 45.016V25.109c0-1.057.31-2.014.93-2.87.619-.857 1.404-1.45 2.351-1.778v-5.195c0-1.35.483-2.507 1.45-3.473.966-.966 2.123-1.45 3.472-1.45h1.64V2.142c0-.438.165-.82.493-1.149.328-.328.71-.492 1.148-.492h23.188c.219 0 .428.046.629.137.201.09.373.21.52.355l9.35 9.352h2.626c1.35 0 2.506.483 3.473 1.449.966.966 1.449 2.124 1.449 3.473zm-4.922-1.641h-1.64v6.563h3.28v-4.922c0-.438-.164-.82-.492-1.149-.328-.328-.71-.492-1.148-.492zm-7.219-3.281l-4.266-4.266v4.266h4.266zM33.031 3.78H13.125v16.407h29.75v-6.563h-8.203c-.438 0-.82-.164-1.149-.492-.328-.328-.492-.711-.492-1.149V3.781zM8.203 13.625c-.437 0-.82.164-1.148.492-.328.328-.492.711-.492 1.149v4.921h3.28v-6.562h-1.64zm4.922 39.594h29.75V36.812h-29.75V53.22zm37.953-6.563c.438 0 .82-.164 1.149-.492.328-.328.492-.71.492-1.148V25.109c0-.437-.164-.82-.492-1.148-.329-.328-.711-.492-1.149-.492H4.922c-.438 0-.82.164-1.149.492-.328.328-.492.71-.492 1.148v19.907c0 .437.164.82.492 1.148.329.328.711.492 1.149.492h4.922v-9.843h-1.64c-.438 0-.821-.165-1.15-.493-.327-.328-.492-.71-.492-1.148 0-.438.165-.82.493-1.149.328-.328.71-.492 1.148-.492h39.594c.437 0 .82.164 1.148.492.328.329.492.711.492 1.149 0 .437-.164.82-.492 1.148-.328.328-.71.492-1.148.492h-1.64v9.844h4.921zm-33.031-6.562c-.438 0-.82.164-1.149.492-.328.328-.492.71-.492 1.148 0 .438.164.82.492 1.149.329.328.711.492 1.149.492h19.906c.438 0 .82-.164 1.149-.492.328-.328.492-.711.492-1.149 0-.437-.164-.82-.492-1.148-.329-.328-.711-.492-1.149-.492H18.047zm19.906 6.562c.438 0 .82.164 1.149.492.328.329.492.711.492 1.149 0 .437-.164.82-.492 1.148-.329.328-.711.492-1.149.492H18.047c-.438 0-.82-.164-1.149-.492-.328-.328-.492-.71-.492-1.148 0-.438.164-.82.492-1.149.329-.328.711-.492 1.149-.492h19.906zM6.563 28.391c0 .437.164.82.492 1.148.328.328.71.492 1.148.492h3.281c.438 0 .82-.164 1.149-.492.328-.328.492-.71.492-1.148 0-.438-.164-.82-.492-1.149-.328-.328-.711-.492-1.149-.492h-3.28c-.438 0-.821.164-1.15.492-.327.328-.492.711-.492 1.149z" fill="#2EBB77"/></g></svg>