<svg width="56" height="57" fill="none" xmlns="http://www.w3.org/2000/svg"><defs><clipPath id="a"><path transform="matrix(1 0 0 -1 0 57)" fill="#fff" fill-opacity="0" d="M0 0h56v57H0z"/></clipPath></defs><g clip-path="url(#a)"><path d="M43.75 11H22.477c-.366-1.495-1.166-2.743-2.407-3.746-1.24-1.003-2.68-1.504-4.32-1.504-1.64 0-3.08.501-4.32 1.504C10.19 8.257 9.389 9.505 9.023 11H1.75a1.68 1.68 0 00-1.23.52c-.346.346-.52.756-.52 1.23s.174.884.52 1.23c.345.347.755.52 1.23.52h7.273c.366 1.495 1.167 2.743 2.407 3.746 1.24 1.003 2.68 1.504 4.32 1.504 1.64 0 3.08-.501 4.32-1.504 1.24-1.003 2.041-2.251 2.407-3.746H43.75a1.68 1.68 0 001.23-.52c.346-.346.52-.756.52-1.23s-.174-.884-.52-1.23a1.68 1.68 0 00-1.23-.52zm-28 5.25c-.947 0-1.768-.346-2.46-1.04-.694-.692-1.04-1.512-1.04-2.46s.346-1.768 1.04-2.46c.692-.694 1.513-1.04 2.46-1.04.947 0 1.768.346 2.46 1.04.694.692 1.04 1.512 1.04 2.46s-.346 1.768-1.04 2.46c-.692.694-1.513 1.04-2.46 1.04zm28 10.5h-7.273c-.366-1.495-1.166-2.743-2.407-3.746C32.83 22 31.39 21.5 29.75 21.5c-1.64 0-3.08.501-4.32 1.504-1.24 1.003-2.041 2.251-2.407 3.746H1.75a1.68 1.68 0 00-1.23.52c-.346.346-.52.756-.52 1.23s.174.884.52 1.23c.345.347.755.52 1.23.52h21.273c.366 1.495 1.166 2.743 2.407 3.746C26.67 35 28.11 35.5 29.75 35.5c1.64 0 3.08-.501 4.32-1.504 1.24-1.003 2.041-2.251 2.407-3.746h7.273a1.68 1.68 0 001.23-.52c.346-.346.52-.756.52-1.23s-.174-.884-.52-1.23a1.68 1.68 0 00-1.23-.52zm-14 5.25c-.947 0-1.768-.346-2.46-1.04-.694-.692-1.04-1.512-1.04-2.46s.346-1.768 1.04-2.46c.692-.694 1.513-1.04 2.46-1.04.947 0 1.768.346 2.46 1.04.694.692 1.04 1.512 1.04 2.46s-.346 1.768-1.04 2.46c-.692.694-1.513 1.04-2.46 1.04zm14 10.5H22.477c-.366-1.495-1.166-2.743-2.407-3.746-1.24-1.003-2.68-1.504-4.32-1.504-1.64 0-3.08.501-4.32 1.504-1.24 1.003-2.041 2.251-2.407 3.746H1.75a1.68 1.68 0 00-1.23.52c-.346.346-.52.756-.52 1.23s.174.884.52 1.23c.345.347.755.52 1.23.52h7.273c.366 1.495 1.167 2.743 2.407 3.746 1.24 1.003 2.68 1.504 4.32 1.504 1.64 0 3.08-.501 4.32-1.504 1.24-1.003 2.041-2.251 2.407-3.746H43.75a1.68 1.68 0 001.23-.52c.346-.346.52-.756.52-1.23s-.174-.884-.52-1.23a1.68 1.68 0 00-1.23-.52zm-28 5.25c-.947 0-1.768-.346-2.46-1.04-.694-.692-1.04-1.512-1.04-2.46s.346-1.768 1.04-2.46c.692-.694 1.513-1.04 2.46-1.04.947 0 1.768.346 2.46 1.04.694.692 1.04 1.512 1.04 2.46s-.346 1.768-1.04 2.46c-.692.694-1.513 1.04-2.46 1.04z" fill="#2EBB77"/></g></svg>