<svg width="13.5" height="11.25" fill="none" xmlns="http://www.w3.org/2000/svg"><path d="M0 5.625c0-.152.055-.284.168-.396a.538.538 0 01.394-.167h12.376c.152 0 .285.056.394.167a.534.534 0 01.168.396.534.534 0 01-.168.396.535.535 0 01-.395.167H.563a.538.538 0 01-.395-.167A.534.534 0 010 5.625zM7.47.158A.587.587 0 017.876 0c.152 0 .287.053.404.158l5.063 5.063a.587.587 0 01.158.404.587.587 0 01-.158.404L8.28 11.092a.587.587 0 01-.404.158.587.587 0 01-.404-.158.587.587 0 01-.159-.405c0-.152.053-.287.159-.404l4.675-4.658L7.471.967a.587.587 0 01-.159-.404c0-.153.053-.288.159-.405z" fill="#000"/></svg>