<svg width="56" height="57" fill="none" xmlns="http://www.w3.org/2000/svg"><defs><clipPath id="a"><path transform="matrix(1 0 0 -1 0 57)" fill="#fff" fill-opacity="0" d="M0 0h56v57H0z"/></clipPath></defs><g clip-path="url(#a)"><path d="M54.96 9.414l-12.25-5.25A1.565 1.565 0 0042 4c-.256 0-.492.055-.71.164l-12.25 5.25c-.292.11-.538.31-.74.602-.2.291-.3.62-.3.984v7c0 2.406.236 4.575.71 6.508a17.863 17.863 0 002.27 5.414c1.04 1.64 2.397 3.19 4.075 4.648 1.64 1.422 3.664 2.826 6.07 4.211.147.073.291.128.438.164a1.8 1.8 0 00.874 0 2.13 2.13 0 00.438-.164c2.406-1.385 4.43-2.789 6.07-4.21 1.678-1.423 3.035-2.963 4.075-4.622a18.299 18.299 0 002.27-5.387c.474-1.968.71-4.156.71-6.562v-7c0-.364-.1-.693-.3-.984a1.561 1.561 0 00-.74-.602zM52.5 18c0 2.005-.182 3.81-.547 5.414-.365 1.64-.957 3.136-1.777 4.484-.82 1.35-1.904 2.607-3.254 3.774-1.313 1.203-2.953 2.388-4.922 3.555-1.969-1.167-3.61-2.352-4.922-3.555-1.35-1.167-2.434-2.434-3.254-3.8a15.128 15.128 0 01-1.777-4.458C31.682 21.81 31.5 20.005 31.5 18v-5.852L42 7.664l10.5 4.484V18zm0 19.25V49.5h-49v-21h19.25a1.68 1.68 0 001.23-.52c.346-.346.52-.756.52-1.23s-.174-.884-.52-1.23a1.68 1.68 0 00-1.23-.52H3.5v-7h19.25a1.68 1.68 0 001.23-.52c.346-.346.52-.756.52-1.23s-.174-.884-.52-1.23a1.68 1.68 0 00-1.23-.52H3.5c-.947 0-1.768.337-2.46 1.012C.345 16.186 0 17.016 0 18v31.5c0 .948.346 1.768 1.04 2.46.692.694 1.513 1.04 2.46 1.04h49c.947 0 1.768-.346 2.46-1.04.694-.692 1.04-1.512 1.04-2.46V37.25c0-.474-.174-.884-.52-1.23a1.68 1.68 0 00-1.23-.52 1.68 1.68 0 00-1.23.52c-.346.346-.52.756-.52 1.23zM8.75 35.5a1.68 1.68 0 00-1.23.52c-.346.346-.52.756-.52 1.23s.174.884.52 1.23c.345.347.755.52 1.23.52h7a1.68 1.68 0 001.23-.52c.346-.346.52-.756.52-1.23s-.174-.884-.52-1.23a1.68 1.68 0 00-1.23-.52h-7zm37.133-20.344l-5.524 6.89-2.132-3.28a1.793 1.793 0 00-1.149-.739 1.746 1.746 0 00-1.312.246c-.4.292-.647.675-.739 1.149a1.74 1.74 0 00.246 1.312l3.5 5.25c.182.22.393.401.63.547.236.146.501.219.792.219h.055c.256 0 .502-.055.738-.164a1.81 1.81 0 00.63-.492l7-8.75c.29-.365.41-.793.355-1.285-.055-.493-.264-.884-.63-1.176-.365-.292-.792-.41-1.284-.356-.493.055-.885.265-1.176.63z" fill="#2EBB77"/></g></svg>