<svg width="53.813" height="53.813" fill="none" xmlns="http://www.w3.org/2000/svg"><path d="M50.422 29.203V18.484c0-.145-.018-.291-.055-.437a1.244 1.244 0 00-.164-.383L41.07 2.461c-.437-.73-1.048-1.322-1.832-1.777A4.872 4.872 0 0036.75 0H13.672a4.73 4.73 0 00-2.461.684A5.605 5.605 0 009.35 2.46L.274 17.664c-.072.11-.136.237-.191.383a1.238 1.238 0 00-.082.437v26.907c0 1.385.502 2.57 1.504 3.554 1.002.985 2.197 1.477 3.582 1.477h24.117a14.826 14.826 0 004.348 2.488 14.59 14.59 0 005.113.903c2.078 0 4.047-.402 5.906-1.204a15.567 15.567 0 004.785-3.254 15.573 15.573 0 003.254-4.785 14.742 14.742 0 001.203-5.906c0-1.786-.3-3.49-.902-5.113a14.86 14.86 0 00-2.488-4.348zM26.906 3.391h9.844c.291 0 .565.073.82.218.256.146.475.347.657.602l7.546 12.633H26.906V3.39zm-14.656.82a1.59 1.59 0 01.602-.602 1.63 1.63 0 01.82-.218h9.898v13.453H4.648L12.25 4.21zM3.39 45.39V20.18h43.696v5.906a15.02 15.02 0 00-3.938-1.86 15.16 15.16 0 00-4.484-.656c-2.078 0-4.03.383-5.852 1.149-1.859.802-3.472 1.886-4.84 3.254-1.367 1.367-2.45 2.98-3.253 4.84-.766 1.822-1.149 3.773-1.149 5.851 0 1.568.22 3.063.657 4.484a14.997 14.997 0 001.859 3.938h-21c-.475 0-.875-.164-1.203-.492a1.637 1.637 0 01-.492-1.203zm35.274 5.03c-1.604 0-3.135-.309-4.594-.929a11.956 11.956 0 01-3.718-2.515 11.964 11.964 0 01-2.516-3.72c-.62-1.457-.93-2.989-.93-4.593s.31-3.135.93-4.594a11.963 11.963 0 012.516-3.718 11.954 11.954 0 013.718-2.516 11.63 11.63 0 014.594-.93c1.604 0 3.135.31 4.594.93a11.956 11.956 0 013.719 2.516 11.964 11.964 0 012.515 3.718c.62 1.459.93 2.99.93 4.594s-.31 3.136-.93 4.594a11.966 11.966 0 01-2.515 3.719 11.958 11.958 0 01-3.72 2.515c-1.458.62-2.99.93-4.593.93zm-1.695-5.03c-.219 0-.428-.046-.63-.137a1.752 1.752 0 01-.519-.356l-5.086-5.03a1.636 1.636 0 01-.492-1.204c0-.474.164-.875.492-1.203a1.635 1.635 0 011.203-.492c.475 0 .875.164 1.204.492l3.828 3.883 7.218-7.219a1.636 1.636 0 011.204-.492c.474 0 .875.164 1.203.492.328.328.492.72.492 1.176 0 .456-.164.847-.492 1.176l-8.422 8.421a1.677 1.677 0 01-.547.356 1.696 1.696 0 01-.656.137zM16.844 28.6h-6.727c-.474 0-.875-.163-1.203-.492a1.637 1.637 0 01-.492-1.203c0-.474.164-.875.492-1.203a1.636 1.636 0 011.203-.492h6.727c.437 0 .82.164 1.148.492.328.328.492.73.492 1.203 0 .474-.164.875-.492 1.203-.328.328-.71.493-1.148.493zm32.593.93V18.484a.796.796 0 00-.027-.164.335.335 0 00-.082-.164L40.25 3.008a3.895 3.895 0 00-1.477-1.45 4.078 4.078 0 00-2.023-.519H13.672c-.694 0-1.35.173-1.969.52a3.888 3.888 0 00-1.476 1.449L1.148 18.156a.335.335 0 00-.082.164.792.792 0 00-.027.164v26.907c0 1.093.393 2.041 1.176 2.843.783.802 1.74 1.203 2.87 1.203h24.446l.274.22a13.964 13.964 0 008.859 3.116c1.932 0 3.756-.364 5.469-1.093a14.17 14.17 0 007.547-7.547 13.832 13.832 0 001.093-5.469c0-1.677-.273-3.272-.82-4.785a13.773 13.773 0 00-2.297-4.074l-.218-.274zM41.07 2.461l9.133 15.203c.072.11.127.237.164.383.037.146.055.292.055.437v10.72a14.86 14.86 0 012.488 4.347 14.59 14.59 0 01.903 5.113c0 2.078-.4 4.047-1.204 5.906a15.573 15.573 0 01-3.254 4.785 15.567 15.567 0 01-4.785 3.254 14.754 14.754 0 01-5.906 1.203c-1.787 0-3.49-.3-5.113-.902a14.826 14.826 0 01-4.348-2.488H5.086c-1.385 0-2.58-.492-3.582-1.477C.502 47.961 0 46.776 0 45.391V18.484c0-.145.027-.291.082-.437.055-.146.12-.274.191-.383L9.352 2.461A5.605 5.605 0 0111.21.684 4.73 4.73 0 0113.67 0h23.08c.875 0 1.705.228 2.488.684.784.455 1.395 1.048 1.832 1.777zm-15.148-.055v15.422h21.601L39.047 3.664a2.24 2.24 0 00-.957-.93 2.855 2.855 0 00-1.34-.328H25.922zM11.375 3.664L2.898 17.828h21.657V2.406H13.672c-.475 0-.912.11-1.313.328a2.68 2.68 0 00-.984.93zM2.406 19.195v26.196c0 .729.256 1.358.766 1.886.51.529 1.148.793 1.914.793H28l-1.094-1.586a14.26 14.26 0 01-1.722-3.636 13.821 13.821 0 01-.63-4.184c0-1.932.366-3.755 1.094-5.469a14.17 14.17 0 017.547-7.547c1.713-.729 3.537-1.093 5.47-1.093 1.458 0 2.853.21 4.183.629 1.33.419 2.543.993 3.636 1.722L48.07 28v-8.805H2.406zm34.563 23.57l-4.54-4.593a.803.803 0 00-.492-.164.803.803 0 00-.492.164.8.8 0 00-.164.492.8.8 0 00.164.492l5.086 5.032c.037.072.1.127.192.164a.68.68 0 00.246.054.61.61 0 00.273-.054.852.852 0 00.219-.164l8.422-8.422c.11-.11.164-.265.164-.465s-.055-.356-.164-.465a.683.683 0 00-.492-.219.683.683 0 00-.493.219l-7.93 7.93zm-10.063-25.92V3.39h9.844c.291 0 .565.073.82.218.256.146.475.347.657.602l7.546 12.633H26.906zm19.14 8.64a14.678 14.678 0 00-3.5-1.422 15.113 15.113 0 00-3.882-.492c-2.078 0-4.03.383-5.852 1.149-1.859.802-3.472 1.886-4.84 3.254-1.367 1.367-2.45 2.98-3.253 4.84-.766 1.822-1.149 3.773-1.149 5.851 0 1.349.164 2.643.492 3.883a14.72 14.72 0 001.422 3.5c.11.182.21.355.301.52.092.163.192.337.3.519h-21c-.474 0-.874-.164-1.202-.492a1.637 1.637 0 01-.492-1.203V20.18h43.695v5.906a16.97 16.97 0 00-.52-.3 16.98 16.98 0 01-.52-.302zm-7.382 25.922c-1.75 0-3.408-.328-4.977-.984a12.79 12.79 0 01-4.046-2.734 12.81 12.81 0 01-2.735-4.047 12.758 12.758 0 01-.984-4.977c0-1.75.328-3.409.984-4.977a12.811 12.811 0 012.735-4.046 12.79 12.79 0 014.047-2.735 12.761 12.761 0 014.976-.984c1.75 0 3.408.328 4.977.984a12.79 12.79 0 014.047 2.735 12.811 12.811 0 012.734 4.047c.656 1.567.984 3.226.984 4.976s-.328 3.409-.984 4.977a12.81 12.81 0 01-2.734 4.047 12.79 12.79 0 01-4.047 2.734 12.76 12.76 0 01-4.977.984zM36.97 41.344l7.218-7.219a1.636 1.636 0 011.204-.492c.474 0 .875.164 1.203.492.328.328.492.72.492 1.176 0 .456-.164.847-.492 1.176l-8.422 8.421a1.677 1.677 0 01-.547.356 1.696 1.696 0 01-.656.137c-.219 0-.428-.046-.63-.137a1.752 1.752 0 01-.519-.356l-5.086-5.03a1.636 1.636 0 01-.492-1.204c0-.474.164-.875.492-1.203a1.635 1.635 0 011.203-.492c.475 0 .875.164 1.204.492l3.828 3.883zM10.117 27.562a.73.73 0 01-.492-.19.594.594 0 01-.219-.466c0-.182.073-.337.219-.465a.73.73 0 01.492-.191h6.727c.181 0 .338.064.465.191a.636.636 0 01.191.465.636.636 0 01-.191.465.633.633 0 01-.465.192h-6.727zm16.79 11.102c0 1.604.31 3.136.929 4.594a11.964 11.964 0 002.516 3.719 11.956 11.956 0 003.718 2.515c1.46.62 2.99.93 4.594.93s3.135-.31 4.594-.93a11.958 11.958 0 003.719-2.515 11.966 11.966 0 002.515-3.72c.62-1.457.93-2.989.93-4.593s-.31-3.135-.93-4.594a11.964 11.964 0 00-2.515-3.718 11.956 11.956 0 00-3.72-2.516 11.63 11.63 0 00-4.593-.93c-1.604 0-3.135.31-4.594.93a11.954 11.954 0 00-3.718 2.516 11.963 11.963 0 00-2.516 3.718c-.62 1.459-.93 2.99-.93 4.594zm-16.79-10.062h6.727c.437 0 .82-.165 1.148-.493.328-.328.492-.729.492-1.203 0-.474-.164-.875-.492-1.203-.328-.328-.71-.492-1.148-.492h-6.727c-.474 0-.875.164-1.203.492-.328.328-.492.73-.492 1.203 0 .474.164.875.492 1.203.328.328.729.493 1.203.493z" fill="#2EBB77"/></svg>