<svg width="53.812500" height="53.812500" viewBox="0 0 53.8125 53.8125" fill="none" xmlns="http://www.w3.org/2000/svg" xmlns:xlink="http://www.w3.org/1999/xlink">
	<desc>
			Created with Pixso.
	</desc>
	<defs/>
	<path id="Vector" d="M50.4219 29.2031L50.4219 18.4844C50.4219 18.3386 50.4043 18.1926 50.3672 18.0469C50.3301 17.9011 50.2754 17.7734 50.2031 17.6641L41.0703 2.46094C40.6328 1.73169 40.0215 1.1394 39.2383 0.683594C38.4551 0.227783 37.625 0 36.75 0L13.6719 0C12.7969 0 11.9766 0.227783 11.2109 0.683594C10.4453 1.1394 9.82617 1.73169 9.35156 2.46094L0.273438 17.6641C0.201172 17.7734 0.136719 17.9011 0.0820312 18.0469C0.0273438 18.1926 0 18.3386 0 18.4844L0 45.3906C0 46.7761 0.501953 47.9609 1.50391 48.9453C2.50586 49.9297 3.70117 50.4219 5.08594 50.4219L29.2031 50.4219C30.4785 51.4792 31.9277 52.3086 33.5508 52.9102C35.1738 53.5117 36.877 53.8125 38.6641 53.8125C40.7422 53.8125 42.7109 53.4114 44.5703 52.6094C46.3926 51.8074 47.9883 50.7227 49.3555 49.3555C50.7227 47.9883 51.8066 46.3933 52.6094 44.5703C53.4121 42.7109 53.8125 40.7422 53.8125 38.6641C53.8125 36.8777 53.5117 35.1731 52.9102 33.5508C52.3086 31.9285 51.4785 30.4792 50.4219 29.2031ZM26.9062 3.39062L36.75 3.39062C37.041 3.39062 37.3145 3.46362 37.5703 3.60938C37.8262 3.75513 38.0449 3.95581 38.2266 4.21094L45.7734 16.8438L26.9062 16.8438L26.9062 3.39062ZM12.25 4.21094C12.3965 3.95581 12.5957 3.75513 12.8516 3.60938C13.1074 3.46362 13.3809 3.39062 13.6719 3.39062L23.5703 3.39062L23.5703 16.8438L4.64844 16.8438L12.25 4.21094ZM3.39062 45.3906L3.39062 20.1797L47.0859 20.1797L47.0859 26.0859C45.8828 25.2839 44.5703 24.6641 43.1484 24.2266C41.7266 23.7891 40.2324 23.5703 38.6641 23.5703C36.5859 23.5703 34.6348 23.9531 32.8125 24.7188C30.9531 25.5208 29.3398 26.6055 27.9727 27.9727C26.6055 29.3398 25.5215 30.9531 24.7188 32.8125C23.9531 34.6355 23.5703 36.5859 23.5703 38.6641C23.5703 40.2317 23.7891 41.7266 24.2266 43.1484C24.6641 44.5703 25.2832 45.8828 26.0859 47.0859L5.08594 47.0859C4.61133 47.0859 4.21094 46.9219 3.88281 46.5938C3.55469 46.2656 3.39062 45.8645 3.39062 45.3906ZM38.6641 50.4219C37.0605 50.4219 35.5293 50.1121 34.0703 49.4922C32.6484 48.8723 31.4082 48.0339 30.3516 46.9766C29.2949 45.9192 28.4551 44.6797 27.8359 43.2578C27.2168 41.7996 26.9062 40.2683 26.9062 38.6641C26.9062 37.0598 27.2168 35.5286 27.8359 34.0703C28.4551 32.6484 29.2949 31.4089 30.3516 30.3516C31.4082 29.2942 32.6484 28.4558 34.0703 27.8359C35.5293 27.2161 37.0605 26.9062 38.6641 26.9062C40.2676 26.9062 41.7988 27.2161 43.2578 27.8359C44.6797 28.4558 45.9199 29.2942 46.9766 30.3516C48.0332 31.4089 48.873 32.6484 49.4922 34.0703C50.1113 35.5286 50.4219 37.0598 50.4219 38.6641C50.4219 40.2683 50.1113 41.7996 49.4922 43.2578C48.873 44.6797 48.0332 45.9192 46.9766 46.9766C45.9199 48.0339 44.6797 48.8723 43.2578 49.4922C41.7988 50.1121 40.2676 50.4219 38.6641 50.4219ZM36.9688 45.3906C36.75 45.3906 36.541 45.345 36.3398 45.2539C36.1387 45.1628 35.9668 45.0442 35.8203 44.8984L30.7344 39.8672C30.4062 39.5391 30.2422 39.1379 30.2422 38.6641C30.2422 38.1902 30.4062 37.7891 30.7344 37.4609C31.0625 37.1328 31.4629 36.9688 31.9375 36.9688C32.4121 36.9688 32.8125 37.1328 33.1406 37.4609L36.9688 41.3438L44.1875 34.125C44.5156 33.7969 44.916 33.6328 45.3906 33.6328C45.8652 33.6328 46.2656 33.7969 46.5938 34.125C46.9219 34.4531 47.0859 34.845 47.0859 35.3008C47.0859 35.7566 46.9219 36.1484 46.5938 36.4766L38.1719 44.8984C38.0254 45.0442 37.8438 45.1628 37.625 45.2539C37.4062 45.345 37.1875 45.3906 36.9688 45.3906ZM16.8438 28.6016L10.1172 28.6016C9.64258 28.6016 9.24219 28.4375 8.91406 28.1094C8.58594 27.7812 8.42188 27.3801 8.42188 26.9062C8.42188 26.4324 8.58594 26.0312 8.91406 25.7031C9.24219 25.375 9.64258 25.2109 10.1172 25.2109L16.8438 25.2109C17.2812 25.2109 17.6641 25.375 17.9922 25.7031C18.3203 26.0312 18.4844 26.4324 18.4844 26.9062C18.4844 27.3801 18.3203 27.7812 17.9922 28.1094C17.6641 28.4375 17.2812 28.6016 16.8438 28.6016ZM49.4375 29.5312L49.4375 18.4844C49.4375 18.448 49.4277 18.3933 49.4102 18.3203C49.3926 18.2473 49.3652 18.1926 49.3281 18.1562L40.25 3.00781C39.8848 2.38794 39.3926 1.90503 38.7734 1.55859C38.1543 1.21216 37.4785 1.03906 36.75 1.03906L13.6719 1.03906C12.9785 1.03906 12.3223 1.21216 11.7031 1.55859C11.084 1.90503 10.5918 2.38794 10.2266 3.00781L1.14844 18.1562C1.11133 18.1926 1.08398 18.2473 1.06641 18.3203C1.04883 18.3933 1.03906 18.448 1.03906 18.4844L1.03906 45.3906C1.03906 46.4844 1.43164 47.4324 2.21484 48.2344C2.99805 49.0364 3.95508 49.4375 5.08594 49.4375L29.5312 49.4375L29.8047 49.6562C31.0078 50.6406 32.3652 51.4062 33.8789 51.9531C35.3926 52.5 36.9863 52.7734 38.6641 52.7734C40.5957 52.7734 42.4199 52.4089 44.1328 51.6797C45.8457 50.9504 47.3496 49.9387 48.6445 48.6445C49.9395 47.3503 50.9512 45.8464 51.6797 44.1328C52.4082 42.4192 52.7734 40.5964 52.7734 38.6641C52.7734 36.9871 52.5 35.3918 51.9531 33.8789C51.4062 32.366 50.6406 31.0078 49.6562 29.8047L49.4375 29.5312ZM41.0703 2.46094L50.2031 17.6641C50.2754 17.7734 50.3301 17.9011 50.3672 18.0469C50.4043 18.1926 50.4219 18.3386 50.4219 18.4844L50.4219 29.2031C51.4785 30.4792 52.3086 31.9285 52.9102 33.5508C53.5117 35.1731 53.8125 36.8777 53.8125 38.6641C53.8125 40.7422 53.4121 42.7109 52.6094 44.5703C51.8066 46.3933 50.7227 47.9883 49.3555 49.3555C47.9883 50.7227 46.3926 51.8074 44.5703 52.6094C42.7109 53.4114 40.7422 53.8125 38.6641 53.8125C36.877 53.8125 35.1738 53.5117 33.5508 52.9102C31.9277 52.3086 30.4785 51.4792 29.2031 50.4219L5.08594 50.4219C3.70117 50.4219 2.50586 49.9297 1.50391 48.9453C0.501953 47.9609 0 46.7761 0 45.3906L0 18.4844C0 18.3386 0.0273438 18.1926 0.0820312 18.0469C0.136719 17.9011 0.201172 17.7734 0.273438 17.6641L9.35156 2.46094C9.82617 1.73169 10.4453 1.1394 11.2109 0.683594C11.9766 0.227783 12.7969 0 13.6719 0L36.75 0C37.625 0 38.4551 0.227783 39.2383 0.683594C40.0215 1.1394 40.6328 1.73169 41.0703 2.46094ZM25.9219 2.40625L25.9219 17.8281L47.5234 17.8281L39.0469 3.66406C38.8281 3.26294 38.5098 2.95312 38.0898 2.73438C37.6699 2.51562 37.2246 2.40625 36.75 2.40625L25.9219 2.40625ZM11.375 3.66406L2.89844 17.8281L24.5547 17.8281L24.5547 2.40625L13.6719 2.40625C13.1973 2.40625 12.7598 2.51562 12.3594 2.73438C11.959 2.95312 11.6309 3.26294 11.375 3.66406ZM2.40625 19.1953L2.40625 45.3906C2.40625 46.1199 2.66211 46.7488 3.17188 47.2773C3.68164 47.8059 4.32031 48.0703 5.08594 48.0703L28 48.0703L26.9062 46.4844C26.1777 45.3906 25.6035 44.1785 25.1836 42.8477C24.7637 41.5168 24.5547 40.1223 24.5547 38.6641C24.5547 36.7317 24.9199 34.9089 25.6484 33.1953C26.377 31.4817 27.3887 29.9778 28.6836 28.6836C29.9785 27.3894 31.4824 26.3777 33.1953 25.6484C34.9082 24.9192 36.7324 24.5547 38.6641 24.5547C40.123 24.5547 41.5176 24.7644 42.8477 25.1836C44.1777 25.6028 45.3906 26.177 46.4844 26.9062L48.0703 28L48.0703 19.1953L2.40625 19.1953ZM36.9688 42.7656L32.4297 38.1719C32.2832 38.0625 32.1191 38.0078 31.9375 38.0078C31.7559 38.0078 31.5918 38.0625 31.4453 38.1719C31.3359 38.3176 31.2812 38.4817 31.2812 38.6641C31.2812 38.8464 31.3359 39.0105 31.4453 39.1562L36.5312 44.1875C36.5684 44.2605 36.6309 44.3152 36.7227 44.3516C36.8145 44.3879 36.8965 44.4062 36.9688 44.4062C37.0781 44.4062 37.1699 44.3879 37.2422 44.3516C37.3145 44.3152 37.3887 44.2605 37.4609 44.1875L45.8828 35.7656C45.9922 35.6562 46.0469 35.5012 46.0469 35.3008C46.0469 35.1003 45.9922 34.9453 45.8828 34.8359C45.7363 34.6902 45.5723 34.6172 45.3906 34.6172C45.209 34.6172 45.0449 34.6902 44.8984 34.8359L36.9688 42.7656ZM26.9062 16.8438L26.9062 3.39062L36.75 3.39062C37.041 3.39062 37.3145 3.46362 37.5703 3.60938C37.8262 3.75513 38.0449 3.95581 38.2266 4.21094L45.7734 16.8438L26.9062 16.8438ZM46.0469 25.4844C44.9531 24.8645 43.7871 24.3906 42.5469 24.0625C41.3066 23.7344 40.0137 23.5703 38.6641 23.5703C36.5859 23.5703 34.6348 23.9531 32.8125 24.7188C30.9531 25.5208 29.3398 26.6055 27.9727 27.9727C26.6055 29.3398 25.5215 30.9531 24.7188 32.8125C23.9531 34.6355 23.5703 36.5859 23.5703 38.6641C23.5703 40.0129 23.7344 41.3074 24.0625 42.5469C24.3906 43.7864 24.8652 44.9531 25.4844 46.0469C25.5938 46.2292 25.6934 46.4023 25.7852 46.5664C25.877 46.7305 25.9766 46.9036 26.0859 47.0859L5.08594 47.0859C4.61133 47.0859 4.21094 46.9219 3.88281 46.5938C3.55469 46.2656 3.39062 45.8645 3.39062 45.3906L3.39062 20.1797L47.0859 20.1797L47.0859 26.0859C46.9043 25.9766 46.7305 25.8762 46.5664 25.7852C46.4023 25.6941 46.2285 25.5938 46.0469 25.4844ZM38.6641 51.4062C36.9141 51.4062 35.2559 51.0781 33.6875 50.4219C32.1562 49.7656 30.8066 48.8542 29.6406 47.6875C28.4746 46.5208 27.5625 45.1719 26.9062 43.6406C26.25 42.073 25.9219 40.4141 25.9219 38.6641C25.9219 36.9141 26.25 35.2551 26.9062 33.6875C27.5625 32.1562 28.4746 30.8074 29.6406 29.6406C30.8066 28.4739 32.1562 27.5625 33.6875 26.9062C35.2559 26.25 36.9141 25.9219 38.6641 25.9219C40.4141 25.9219 42.0723 26.25 43.6406 26.9062C45.1719 27.5625 46.5215 28.4739 47.6875 29.6406C48.8535 30.8074 49.7656 32.1562 50.4219 33.6875C51.0781 35.2551 51.4062 36.9141 51.4062 38.6641C51.4062 40.4141 51.0781 42.073 50.4219 43.6406C49.7656 45.1719 48.8535 46.5208 47.6875 47.6875C46.5215 48.8542 45.1719 49.7656 43.6406 50.4219C42.0723 51.0781 40.4141 51.4062 38.6641 51.4062ZM36.9688 41.3438L44.1875 34.125C44.5156 33.7969 44.916 33.6328 45.3906 33.6328C45.8652 33.6328 46.2656 33.7969 46.5938 34.125C46.9219 34.4531 47.0859 34.845 47.0859 35.3008C47.0859 35.7566 46.9219 36.1484 46.5938 36.4766L38.1719 44.8984C38.0254 45.0442 37.8438 45.1628 37.625 45.2539C37.4062 45.345 37.1875 45.3906 36.9688 45.3906C36.75 45.3906 36.541 45.345 36.3398 45.2539C36.1387 45.1628 35.9668 45.0442 35.8203 44.8984L30.7344 39.8672C30.4062 39.5391 30.2422 39.1379 30.2422 38.6641C30.2422 38.1902 30.4062 37.7891 30.7344 37.4609C31.0625 37.1328 31.4629 36.9688 31.9375 36.9688C32.4121 36.9688 32.8125 37.1328 33.1406 37.4609L36.9688 41.3438ZM10.1172 27.5625C9.93555 27.5625 9.77148 27.4988 9.625 27.3711C9.47852 27.2434 9.40625 27.0886 9.40625 26.9062C9.40625 26.7239 9.47852 26.5691 9.625 26.4414C9.77148 26.3137 9.93555 26.25 10.1172 26.25L16.8438 26.25C17.0254 26.25 17.1816 26.3137 17.3086 26.4414C17.4355 26.5691 17.5 26.7239 17.5 26.9062C17.5 27.0886 17.4355 27.2434 17.3086 27.3711C17.1816 27.4988 17.0254 27.5625 16.8438 27.5625L10.1172 27.5625ZM26.9062 38.6641C26.9062 40.2683 27.2168 41.7996 27.8359 43.2578C28.4551 44.6797 29.2949 45.9192 30.3516 46.9766C31.4082 48.0339 32.6484 48.8723 34.0703 49.4922C35.5293 50.1121 37.0605 50.4219 38.6641 50.4219C40.2676 50.4219 41.7988 50.1121 43.2578 49.4922C44.6797 48.8723 45.9199 48.0339 46.9766 46.9766C48.0332 45.9192 48.873 44.6797 49.4922 43.2578C50.1113 41.7996 50.4219 40.2683 50.4219 38.6641C50.4219 37.0598 50.1113 35.5286 49.4922 34.0703C48.873 32.6484 48.0332 31.4089 46.9766 30.3516C45.9199 29.2942 44.6797 28.4558 43.2578 27.8359C41.7988 27.2161 40.2676 26.9062 38.6641 26.9062C37.0605 26.9062 35.5293 27.2161 34.0703 27.8359C32.6484 28.4558 31.4082 29.2942 30.3516 30.3516C29.2949 31.4089 28.4551 32.6484 27.8359 34.0703C27.2168 35.5286 26.9062 37.0598 26.9062 38.6641ZM10.1172 28.6016L16.8438 28.6016C17.2812 28.6016 17.6641 28.4375 17.9922 28.1094C18.3203 27.7812 18.4844 27.3801 18.4844 26.9062C18.4844 26.4324 18.3203 26.0312 17.9922 25.7031C17.6641 25.375 17.2812 25.2109 16.8438 25.2109L10.1172 25.2109C9.64258 25.2109 9.24219 25.375 8.91406 25.7031C8.58594 26.0312 8.42188 26.4324 8.42188 26.9062C8.42188 27.3801 8.58594 27.7812 8.91406 28.1094C9.24219 28.4375 9.64258 28.6016 10.1172 28.6016Z" fill="#2EBB77" fill-opacity="1.000000" fill-rule="nonzero"/>
</svg>
