<svg width="13.500000" height="11.250000" viewBox="0 0 13.5 11.25" fill="none" xmlns="http://www.w3.org/2000/svg" xmlns:xlink="http://www.w3.org/1999/xlink">
	<desc>
			Created with Pixso.
	</desc>
	<defs/>
	<path id="Vector" d="M0 5.625C0 5.47266 0.0546875 5.34082 0.167969 5.22949C0.279297 5.11816 0.410156 5.0625 0.5625 5.0625L12.9375 5.0625C13.0898 5.0625 13.2227 5.11816 13.332 5.22949C13.4453 5.34082 13.5 5.47266 13.5 5.625C13.5 5.77734 13.4453 5.90918 13.332 6.02051C13.2227 6.13184 13.0898 6.1875 12.9375 6.1875L0.5625 6.1875C0.410156 6.1875 0.279297 6.13184 0.167969 6.02051C0.0546875 5.90918 0 5.77734 0 5.625ZM7.4707 0.158203C7.58789 0.0527344 7.72266 0 7.875 0C8.02734 0 8.16211 0.0527344 8.2793 0.158203L13.3418 5.2207C13.4473 5.33789 13.5 5.47266 13.5 5.625C13.5 5.77734 13.4473 5.91211 13.3418 6.0293L8.2793 11.0918C8.16211 11.1973 8.02734 11.25 7.875 11.25C7.72266 11.25 7.58789 11.1973 7.4707 11.0918C7.36523 10.9746 7.3125 10.8398 7.3125 10.6875C7.3125 10.5352 7.36523 10.4004 7.4707 10.2832L12.1465 5.625L7.4707 0.966797C7.36523 0.849609 7.3125 0.714844 7.3125 0.5625C7.3125 0.410156 7.36523 0.275391 7.4707 0.158203Z" fill="#000000" fill-opacity="1.000000" fill-rule="nonzero"/>
</svg>
