<svg width="56.000000" height="38.828125" viewBox="0 0 56 38.8281" fill="none" xmlns="http://www.w3.org/2000/svg" xmlns:xlink="http://www.w3.org/1999/xlink">
	<desc>
			Created with Pixso.
	</desc>
	<defs/>
	<path id="Vector" d="M55.6172 19.25L52.3359 15.0391L47.0312 4.48438C46.8848 4.19263 46.6758 3.96484 46.4023 3.80078C46.1289 3.63672 45.8105 3.55469 45.4453 3.55469L37.9531 3.55469L37.9531 1.75C37.9531 1.27612 37.7793 0.865967 37.4336 0.519531C37.0879 0.173096 36.6777 0 36.2031 0L6.78125 0C6.27148 0 5.8418 0.173096 5.49609 0.519531C5.15039 0.865967 4.97656 1.27612 4.97656 1.75C4.97656 2.2605 5.15039 2.68872 5.49609 3.03516C5.8418 3.38159 6.27148 3.55469 6.78125 3.55469L34.3984 3.55469L34.3984 15.8594C34.3984 16.3699 34.5723 16.7981 34.918 17.1445C35.2637 17.491 35.6934 17.6641 36.2031 17.6641L49.875 17.6641L52.4453 20.9453L52.4453 30.0781L49.1641 30.0781C48.7637 28.5469 47.9336 27.2708 46.6758 26.25C45.418 25.2292 43.9512 24.7188 42.2734 24.7188C40.6328 24.7188 39.1836 25.2292 37.9258 26.25C36.668 27.2708 35.8379 28.5469 35.4375 30.0781L25.0469 30.0781C24.6465 28.5469 23.8164 27.2708 22.5586 26.25C21.3008 25.2292 19.834 24.7188 18.1562 24.7188C16.5156 24.7188 15.0664 25.2292 13.8086 26.25C12.5508 27.2708 11.7207 28.5469 11.3203 30.0781L6.78125 30.0781C6.27148 30.0781 5.8418 30.2512 5.49609 30.5977C5.15039 30.9441 4.97656 31.3542 4.97656 31.8281C4.97656 32.302 5.15039 32.7122 5.49609 33.0586C5.8418 33.405 6.27148 33.5781 6.78125 33.5781L11.375 33.5781C11.7754 35.1094 12.6055 36.3672 13.8633 37.3516C15.1211 38.3359 16.5527 38.8281 18.1562 38.8281C19.7969 38.8281 21.2461 38.3359 22.5039 37.3516C23.7617 36.3672 24.5918 35.1094 24.9922 33.5781L35.4922 33.5781C35.8926 35.1094 36.7227 36.3672 37.9805 37.3516C39.2383 38.3359 40.6699 38.8281 42.2734 38.8281C43.9141 38.8281 45.3633 38.3359 46.6211 37.3516C47.8789 36.3672 48.709 35.1094 49.1094 33.5781L54.25 33.5781C54.7246 33.5781 55.1348 33.405 55.4805 33.0586C55.8262 32.7122 56 32.302 56 31.8281L56 20.3438C56 20.1614 55.9727 19.9792 55.918 19.7969C55.8633 19.6145 55.7637 19.4324 55.6172 19.25ZM44.4062 7.05469L47.9062 14.1094L37.9531 14.1094L37.9531 7.05469L44.4062 7.05469ZM18.1562 35.2734C17.209 35.2734 16.3887 34.9363 15.6953 34.2617C15.002 33.5872 14.6562 32.7578 14.6562 31.7734C14.6562 30.7891 15.002 29.9504 15.6953 29.2578C16.3887 28.5652 17.209 28.2188 18.1562 28.2188C19.1406 28.2188 19.9785 28.5652 20.6719 29.2578C21.3652 29.9504 21.7109 30.7891 21.7109 31.7734C21.7109 32.7578 21.3652 33.5872 20.6719 34.2617C19.9785 34.9363 19.1406 35.2734 18.1562 35.2734ZM42.2734 35.2734C41.3262 35.2734 40.5059 34.9363 39.8125 34.2617C39.1191 33.5872 38.7734 32.7578 38.7734 31.7734C38.7734 30.7891 39.1191 29.9504 39.8125 29.2578C40.5059 28.5652 41.3262 28.2188 42.2734 28.2188C43.2578 28.2188 44.0957 28.5652 44.7891 29.2578C45.4824 29.9504 45.8281 30.7891 45.8281 31.7734C45.8281 32.7578 45.4824 33.5872 44.7891 34.2617C44.0957 34.9363 43.2578 35.2734 42.2734 35.2734ZM4.64844 21.1094C4.17383 21.1094 3.76367 21.2825 3.41797 21.6289C3.07227 21.9753 2.89844 22.3855 2.89844 22.8594C2.89844 23.3699 3.07227 23.7981 3.41797 24.1445C3.76367 24.491 4.17383 24.6641 4.64844 24.6641L12.7422 24.6641C13.252 24.6641 13.6816 24.491 14.0273 24.1445C14.373 23.7981 14.5469 23.3699 14.5469 22.8594C14.5469 22.3855 14.373 21.9753 14.0273 21.6289C13.6816 21.2825 13.252 21.1094 12.7422 21.1094L4.64844 21.1094ZM16.8438 14.1641C17.3184 14.1641 17.7285 14.3372 18.0742 14.6836C18.4199 15.03 18.5938 15.4583 18.5938 15.9688C18.5938 16.4426 18.4199 16.8528 18.0742 17.1992C17.7285 17.5457 17.3184 17.7188 16.8438 17.7188L1.75 17.7188C1.27539 17.7188 0.865234 17.5457 0.519531 17.1992C0.173828 16.8528 0 16.4426 0 15.9688C0 15.4583 0.173828 15.03 0.519531 14.6836C0.865234 14.3372 1.27539 14.1641 1.75 14.1641L16.8438 14.1641ZM4.64844 7.21875C4.17383 7.21875 3.76367 7.39185 3.41797 7.73828C3.07227 8.08472 2.89844 8.51294 2.89844 9.02344C2.89844 9.49731 3.07227 9.90747 3.41797 10.2539C3.76367 10.6003 4.17383 10.7734 4.64844 10.7734L19.6875 10.7734C20.1973 10.7734 20.627 10.6003 20.9727 10.2539C21.3184 9.90747 21.4922 9.49731 21.4922 9.02344C21.4922 8.51294 21.3184 8.08472 20.9727 7.73828C20.627 7.39185 20.1973 7.21875 19.6875 7.21875L4.64844 7.21875Z" fill="#2EBB77" fill-opacity="1.000000" fill-rule="nonzero"/>
</svg>
