<svg width="53.812500" height="53.812500" viewBox="0 0 53.8125 53.8125" fill="none" xmlns="http://www.w3.org/2000/svg" xmlns:xlink="http://www.w3.org/1999/xlink">
	<desc>
			Created with Pixso.
	</desc>
	<defs/>
	<path id="Vector" d="M35.3281 31.9375C35.3281 32.0833 35.3184 32.2292 35.3008 32.375C35.2832 32.5208 35.2734 32.6484 35.2734 32.7578L44.0234 42.9844C45.0449 41.927 45.9375 40.7969 46.7031 39.5938C47.5059 38.3542 48.1797 37.0598 48.7266 35.7109C49.2734 34.3621 49.6934 32.9402 49.9844 31.4453C50.2754 29.9871 50.4219 28.4739 50.4219 26.9062C50.4219 23.6614 49.8027 20.6172 48.5625 17.7734C47.3223 14.8933 45.6465 12.3958 43.5312 10.2812C41.416 8.16675 38.9199 6.4895 36.0391 5.25C33.1953 4.0105 30.1504 3.39062 26.9062 3.39062C24.4277 3.39062 22.0566 3.75513 19.7969 4.48438C17.5371 5.21362 15.459 6.23438 13.5625 7.54688L21.2188 16.4609C21.7656 16.0598 22.3848 15.741 23.0781 15.5039C23.7715 15.2668 24.4824 15.1484 25.2109 15.1484L25.2109 11.8125C25.2109 11.3386 25.375 10.9375 25.7031 10.6094C26.0312 10.2812 26.4316 10.1172 26.9062 10.1172C27.3809 10.1172 27.7812 10.2812 28.1094 10.6094C28.4375 10.9375 28.6016 11.3386 28.6016 11.8125L28.6016 15.1484C30.4609 15.1484 32.0469 15.8047 33.3594 17.1172C34.6719 18.4297 35.3281 20.0156 35.3281 21.875C35.3281 22.3489 35.1641 22.75 34.8359 23.0781C34.5078 23.4062 34.1074 23.5703 33.6328 23.5703C33.1582 23.5703 32.7578 23.4062 32.4297 23.0781C32.1016 22.75 31.9375 22.3489 31.9375 21.875C31.9375 20.927 31.6094 20.125 30.9531 19.4688C30.2969 18.8125 29.5137 18.4844 28.6016 18.4844L25.2109 18.4844C24.8828 18.4844 24.5645 18.53 24.2539 18.6211C23.9434 18.7122 23.6621 18.8489 23.4062 19.0312L29.2031 25.7578L31.5 26.3047C32.6309 26.5964 33.5508 27.198 34.2617 28.1094C34.9727 29.0208 35.3281 30.0598 35.3281 31.2266L35.3281 31.9375ZM33.9062 36.0391C33.3223 36.8411 32.5664 37.4792 31.6367 37.9531C30.707 38.427 29.6953 38.6641 28.6016 38.6641L28.6016 42C28.6016 42.4739 28.4375 42.875 28.1094 43.2031C27.7812 43.5312 27.3809 43.6953 26.9062 43.6953C26.4316 43.6953 26.0312 43.5312 25.7031 43.2031C25.375 42.875 25.2109 42.4739 25.2109 42L25.2109 38.6641C23.3516 38.6641 21.7656 38.0078 20.4531 36.6953C19.1406 35.3828 18.4844 33.7969 18.4844 31.9375C18.4844 31.4636 18.6484 31.0625 18.9766 30.7344C19.3047 30.4062 19.7051 30.2422 20.1797 30.2422C20.6543 30.2422 21.0547 30.4062 21.3828 30.7344C21.7109 31.0625 21.875 31.4636 21.875 31.9375C21.875 32.8855 22.2031 33.6875 22.8594 34.3438C23.5156 35 24.2988 35.3281 25.2109 35.3281L28.6016 35.3281C29.2578 35.3281 29.8496 35.155 30.3789 34.8086C30.9082 34.4622 31.3184 33.9973 31.6094 33.4141L27.3984 28.7656L22.3125 27.5078C21.1816 27.2161 20.2617 26.6145 19.5508 25.7031C18.8398 24.7917 18.4844 23.7527 18.4844 22.5859L18.4844 21.875C18.4844 21.4375 18.5293 21.0183 18.6211 20.6172C18.7129 20.2161 18.8301 19.8152 18.9766 19.4141L10.5 10.0625C9.40625 11.1199 8.42188 12.2864 7.54688 13.5625C6.67188 14.8386 5.92383 16.1875 5.30469 17.6094C4.68555 19.0312 4.21094 20.5261 3.88281 22.0938C3.55469 23.6614 3.39062 25.2656 3.39062 26.9062C3.39062 30.1511 4.00977 33.1953 5.25 36.0391C6.49023 38.9192 8.16602 41.4167 10.2812 43.5312C12.3965 45.6458 14.8926 47.323 17.7734 48.5625C20.6172 49.802 23.6621 50.4219 26.9062 50.4219C29.7871 50.4219 32.5117 49.9387 35.082 48.9727C37.6523 48.0066 39.959 46.6667 42 44.9531L33.9062 36.0391ZM21.875 22.6406L23.3516 24.2812L23.1328 24.2266C22.7676 24.1536 22.4668 23.9714 22.2305 23.6797C21.9941 23.3879 21.875 23.0417 21.875 22.6406ZM26.9062 0C30.625 0 34.1074 0.710938 37.3516 2.13281C40.6328 3.55469 43.4863 5.47778 45.9102 7.90234C48.334 10.3269 50.2578 13.1797 51.6797 16.4609C53.1016 19.7058 53.8125 23.1875 53.8125 26.9062C53.8125 30.625 53.1016 34.1067 51.6797 37.3516C50.2578 40.6328 48.334 43.4856 45.9102 45.9102C43.4863 48.3347 40.6328 50.2578 37.3516 51.6797C34.1074 53.1016 30.625 53.8125 26.9062 53.8125C23.1875 53.8125 19.7051 53.1016 16.4609 51.6797C13.1797 50.2578 10.3262 48.3347 7.90234 45.9102C5.47852 43.4856 3.55469 40.6328 2.13281 37.3516C0.710938 34.1067 0 30.625 0 26.9062C0 23.1875 0.710938 19.7058 2.13281 16.4609C3.55469 13.1797 5.47852 10.3269 7.90234 7.90234C10.3262 5.47778 13.1797 3.55469 16.4609 2.13281C19.7051 0.710938 23.1875 0 26.9062 0Z" fill="#2EBB77" fill-opacity="1.000000" fill-rule="nonzero"/>
</svg>
