<svg width="20.000000" height="18.000000" viewBox="0 0 20 18" fill="none" xmlns="http://www.w3.org/2000/svg" xmlns:xlink="http://www.w3.org/1999/xlink">
	<desc>
			Created with Pixso.
	</desc>
	<defs>
		<filter id="filter_8360_20599_dd" x="0.000000" y="0.000000" width="20.000000" height="18.000000" filterUnits="userSpaceOnUse" color-interpolation-filters="sRGB">
			<feFlood flood-opacity="0" result="BackgroundImageFix"/>
			<feColorMatrix in="SourceAlpha" type="matrix" values="0 0 0 0 0 0 0 0 0 0 0 0 0 0 0 0 0 0 127 0" result="hardAlpha"/>
			<feOffset dx="0" dy="4"/>
			<feGaussianBlur stdDeviation="1.33333"/>
			<feComposite in2="hardAlpha" operator="out" k2="-1" k3="1"/>
			<feColorMatrix type="matrix" values="0 0 0 0 0 0 0 0 0 0 0 0 0 0 0 0 0 0 0.25 0"/>
			<feBlend mode="normal" in2="BackgroundImageFix" result="effect_dropShadow_1"/>
			<feBlend mode="normal" in="SourceGraphic" in2="effect_dropShadow_1" result="shape"/>
		</filter>
	</defs>
	<g filter="url(#filter_8360_20599_dd)">
		<path id="Vector" d="M4 5C4 4.8645 4.04883 4.74731 4.14844 4.64844C4.24805 4.54956 4.36523 4.5 4.5 4.5L15.5 4.5C15.6348 4.5 15.752 4.54956 15.8516 4.64844C15.9512 4.74731 16 4.8645 16 5C16 5.1355 15.9512 5.25269 15.8516 5.35156C15.752 5.45044 15.6348 5.5 15.5 5.5L4.5 5.5C4.36523 5.5 4.24805 5.45044 4.14844 5.35156C4.04883 5.25269 4 5.1355 4 5ZM10.6406 0.140625C10.7441 0.046875 10.8652 0 11 0C11.1348 0 11.2559 0.046875 11.3594 0.140625L15.8594 4.64062C15.9531 4.74487 16 4.8645 16 5C16 5.1355 15.9531 5.25513 15.8594 5.35938L11.3594 9.85938C11.2559 9.95312 11.1348 10 11 10C10.8652 10 10.7441 9.95312 10.6406 9.85938C10.5469 9.75513 10.5 9.6355 10.5 9.5C10.5 9.3645 10.5469 9.24487 10.6406 9.14062L14.7969 5L10.6406 0.859375C10.5469 0.755127 10.5 0.635498 10.5 0.5C10.5 0.364502 10.5469 0.244873 10.6406 0.140625Z" fill="#FFFFFF" fill-opacity="1.000000" fill-rule="nonzero"/>
	</g>
</svg>
