<svg width="56.000000" height="57.000000" viewBox="0 0 56 57" fill="none" xmlns="http://www.w3.org/2000/svg" xmlns:xlink="http://www.w3.org/1999/xlink">
	<desc>
			Created with Pixso.
	</desc>
	<defs>
		<clipPath id="clip8360_20793">
			<rect id="Link" width="56.000000" height="57.000000" transform="matrix(1 0 0 -1 0 57)" fill="white" fill-opacity="0"/>
		</clipPath>
	</defs>
	<g clip-path="url(#clip8360_20793)">
		<path id="Vector" d="M43.75 11L22.4766 11C22.1113 9.50513 21.3105 8.25659 20.0703 7.25391C18.8301 6.25122 17.3906 5.75 15.75 5.75C14.1094 5.75 12.6699 6.25122 11.4297 7.25391C10.1895 8.25659 9.38867 9.50513 9.02344 11L1.75 11C1.27539 11 0.865234 11.1731 0.519531 11.5195C0.173828 11.866 0 12.2761 0 12.75C0 13.2239 0.173828 13.634 0.519531 13.9805C0.865234 14.3269 1.27539 14.5 1.75 14.5L9.02344 14.5C9.38867 15.9949 10.1895 17.2434 11.4297 18.2461C12.6699 19.2488 14.1094 19.75 15.75 19.75C17.3906 19.75 18.8301 19.2488 20.0703 18.2461C21.3105 17.2434 22.1113 15.9949 22.4766 14.5L43.75 14.5C44.2246 14.5 44.6348 14.3269 44.9805 13.9805C45.3262 13.634 45.5 13.2239 45.5 12.75C45.5 12.2761 45.3262 11.866 44.9805 11.5195C44.6348 11.1731 44.2246 11 43.75 11ZM15.75 16.25C14.8027 16.25 13.9824 15.9036 13.2891 15.2109C12.5957 14.5183 12.25 13.698 12.25 12.75C12.25 11.802 12.5957 10.9817 13.2891 10.2891C13.9824 9.59644 14.8027 9.25 15.75 9.25C16.6973 9.25 17.5176 9.59644 18.2109 10.2891C18.9043 10.9817 19.25 11.802 19.25 12.75C19.25 13.698 18.9043 14.5183 18.2109 15.2109C17.5176 15.9036 16.6973 16.25 15.75 16.25ZM43.75 26.75L36.4766 26.75C36.1113 25.2551 35.3105 24.0066 34.0703 23.0039C32.8301 22.0012 31.3906 21.5 29.75 21.5C28.1094 21.5 26.6699 22.0012 25.4297 23.0039C24.1895 24.0066 23.3887 25.2551 23.0234 26.75L1.75 26.75C1.27539 26.75 0.865234 26.9231 0.519531 27.2695C0.173828 27.616 0 28.0261 0 28.5C0 28.9739 0.173828 29.384 0.519531 29.7305C0.865234 30.0769 1.27539 30.25 1.75 30.25L23.0234 30.25C23.3887 31.7449 24.1895 32.9934 25.4297 33.9961C26.6699 34.9988 28.1094 35.5 29.75 35.5C31.3906 35.5 32.8301 34.9988 34.0703 33.9961C35.3105 32.9934 36.1113 31.7449 36.4766 30.25L43.75 30.25C44.2246 30.25 44.6348 30.0769 44.9805 29.7305C45.3262 29.384 45.5 28.9739 45.5 28.5C45.5 28.0261 45.3262 27.616 44.9805 27.2695C44.6348 26.9231 44.2246 26.75 43.75 26.75ZM29.75 32C28.8027 32 27.9824 31.6536 27.2891 30.9609C26.5957 30.2683 26.25 29.448 26.25 28.5C26.25 27.552 26.5957 26.7317 27.2891 26.0391C27.9824 25.3464 28.8027 25 29.75 25C30.6973 25 31.5176 25.3464 32.2109 26.0391C32.9043 26.7317 33.25 27.552 33.25 28.5C33.25 29.448 32.9043 30.2683 32.2109 30.9609C31.5176 31.6536 30.6973 32 29.75 32ZM43.75 42.5L22.4766 42.5C22.1113 41.0051 21.3105 39.7566 20.0703 38.7539C18.8301 37.7512 17.3906 37.25 15.75 37.25C14.1094 37.25 12.6699 37.7512 11.4297 38.7539C10.1895 39.7566 9.38867 41.0051 9.02344 42.5L1.75 42.5C1.27539 42.5 0.865234 42.6731 0.519531 43.0195C0.173828 43.366 0 43.7761 0 44.25C0 44.7239 0.173828 45.134 0.519531 45.4805C0.865234 45.8269 1.27539 46 1.75 46L9.02344 46C9.38867 47.4949 10.1895 48.7434 11.4297 49.7461C12.6699 50.7488 14.1094 51.25 15.75 51.25C17.3906 51.25 18.8301 50.7488 20.0703 49.7461C21.3105 48.7434 22.1113 47.4949 22.4766 46L43.75 46C44.2246 46 44.6348 45.8269 44.9805 45.4805C45.3262 45.134 45.5 44.7239 45.5 44.25C45.5 43.7761 45.3262 43.366 44.9805 43.0195C44.6348 42.6731 44.2246 42.5 43.75 42.5ZM15.75 47.75C14.8027 47.75 13.9824 47.4036 13.2891 46.7109C12.5957 46.0183 12.25 45.198 12.25 44.25C12.25 43.302 12.5957 42.4817 13.2891 41.7891C13.9824 41.0964 14.8027 40.75 15.75 40.75C16.6973 40.75 17.5176 41.0964 18.2109 41.7891C18.9043 42.4817 19.25 43.302 19.25 44.25C19.25 45.198 18.9043 46.0183 18.2109 46.7109C17.5176 47.4036 16.6973 47.75 15.75 47.75Z" fill="#2EBB77" fill-opacity="1.000000" fill-rule="nonzero"/>
	</g>
</svg>
