<svg width="56.000000" height="57.000000" viewBox="0 0 56 57" fill="none" xmlns="http://www.w3.org/2000/svg" xmlns:xlink="http://www.w3.org/1999/xlink">
	<desc>
			Created with Pixso.
	</desc>
	<defs>
		<clipPath id="clip8360_20780">
			<rect id="Link" width="56.000000" height="57.000000" transform="matrix(1 0 0 -1 0 57)" fill="white" fill-opacity="0"/>
		</clipPath>
	</defs>
	<g clip-path="url(#clip8360_20780)">
		<path id="Vector" d="M52.7188 15.2656L52.7188 20.4609C53.666 20.7891 54.4512 21.3816 55.0703 22.2383C55.6895 23.095 56 24.052 56 25.1094L56 45.0156C56 46.3645 55.5176 47.5222 54.5508 48.4883C53.584 49.4543 52.4277 49.9375 51.0781 49.9375L46.1562 49.9375L46.1562 54.8594C46.1562 55.2969 45.9922 55.6797 45.6641 56.0078C45.3359 56.3359 44.9531 56.5 44.5156 56.5L11.4844 56.5C11.0469 56.5 10.6641 56.3359 10.3359 56.0078C10.0078 55.6797 9.84375 55.2969 9.84375 54.8594L9.84375 49.9375L4.92188 49.9375C3.57227 49.9375 2.41602 49.4543 1.44922 48.4883C0.482422 47.5222 0 46.3645 0 45.0156L0 25.1094C0 24.052 0.310547 23.095 0.929688 22.2383C1.54883 21.3816 2.33398 20.7891 3.28125 20.4609L3.28125 15.2656C3.28125 13.9167 3.76367 12.759 4.73047 11.793C5.69727 10.8269 6.85352 10.3438 8.20312 10.3438L9.84375 10.3438L9.84375 2.14062C9.84375 1.70312 10.0078 1.32031 10.3359 0.992188C10.6641 0.664062 11.0469 0.5 11.4844 0.5L34.6719 0.5C34.8906 0.5 35.0996 0.545654 35.3008 0.636719C35.502 0.727783 35.6738 0.846436 35.8203 0.992188L45.1719 10.3438L47.7969 10.3438C49.1465 10.3438 50.3027 10.8269 51.2695 11.793C52.2363 12.759 52.7188 13.9167 52.7188 15.2656ZM47.7969 13.625L46.1562 13.625L46.1562 20.1875L49.4375 20.1875L49.4375 15.2656C49.4375 14.8281 49.2734 14.4453 48.9453 14.1172C48.6172 13.7891 48.2344 13.625 47.7969 13.625ZM40.5781 10.3438L36.3125 6.07812L36.3125 10.3438L40.5781 10.3438ZM33.0312 3.78125L13.125 3.78125L13.125 20.1875L42.875 20.1875L42.875 13.625L34.6719 13.625C34.2344 13.625 33.8516 13.4609 33.5234 13.1328C33.1953 12.8047 33.0312 12.4219 33.0312 11.9844L33.0312 3.78125ZM8.20312 13.625C7.76562 13.625 7.38281 13.7891 7.05469 14.1172C6.72656 14.4453 6.5625 14.8281 6.5625 15.2656L6.5625 20.1875L9.84375 20.1875L9.84375 13.625L8.20312 13.625ZM13.125 53.2188L42.875 53.2188L42.875 36.8125L13.125 36.8125L13.125 53.2188ZM51.0781 46.6562C51.5156 46.6562 51.8984 46.4922 52.2266 46.1641C52.5547 45.8359 52.7188 45.4531 52.7188 45.0156L52.7188 25.1094C52.7188 24.6719 52.5547 24.2891 52.2266 23.9609C51.8984 23.6328 51.5156 23.4688 51.0781 23.4688L4.92188 23.4688C4.48438 23.4688 4.10156 23.6328 3.77344 23.9609C3.44531 24.2891 3.28125 24.6719 3.28125 25.1094L3.28125 45.0156C3.28125 45.4531 3.44531 45.8359 3.77344 46.1641C4.10156 46.4922 4.48438 46.6562 4.92188 46.6562L9.84375 46.6562L9.84375 36.8125L8.20312 36.8125C7.76562 36.8125 7.38281 36.6484 7.05469 36.3203C6.72656 35.9922 6.5625 35.6094 6.5625 35.1719C6.5625 34.7344 6.72656 34.3516 7.05469 34.0234C7.38281 33.6953 7.76562 33.5312 8.20312 33.5312L47.7969 33.5312C48.2344 33.5312 48.6172 33.6953 48.9453 34.0234C49.2734 34.3516 49.4375 34.7344 49.4375 35.1719C49.4375 35.6094 49.2734 35.9922 48.9453 36.3203C48.6172 36.6484 48.2344 36.8125 47.7969 36.8125L46.1562 36.8125L46.1562 46.6562L51.0781 46.6562ZM18.0469 40.0938C17.6094 40.0938 17.2266 40.2578 16.8984 40.5859C16.5703 40.9141 16.4062 41.2969 16.4062 41.7344C16.4062 42.1719 16.5703 42.5547 16.8984 42.8828C17.2266 43.2109 17.6094 43.375 18.0469 43.375L37.9531 43.375C38.3906 43.375 38.7734 43.2109 39.1016 42.8828C39.4297 42.5547 39.5938 42.1719 39.5938 41.7344C39.5938 41.2969 39.4297 40.9141 39.1016 40.5859C38.7734 40.2578 38.3906 40.0938 37.9531 40.0938L18.0469 40.0938ZM37.9531 46.6562C38.3906 46.6562 38.7734 46.8203 39.1016 47.1484C39.4297 47.4766 39.5938 47.8594 39.5938 48.2969C39.5938 48.7344 39.4297 49.1172 39.1016 49.4453C38.7734 49.7734 38.3906 49.9375 37.9531 49.9375L18.0469 49.9375C17.6094 49.9375 17.2266 49.7734 16.8984 49.4453C16.5703 49.1172 16.4062 48.7344 16.4062 48.2969C16.4062 47.8594 16.5703 47.4766 16.8984 47.1484C17.2266 46.8203 17.6094 46.6562 18.0469 46.6562L37.9531 46.6562ZM6.5625 28.3906C6.5625 28.8281 6.72656 29.2109 7.05469 29.5391C7.38281 29.8672 7.76562 30.0312 8.20312 30.0312L11.4844 30.0312C11.9219 30.0312 12.3047 29.8672 12.6328 29.5391C12.9609 29.2109 13.125 28.8281 13.125 28.3906C13.125 27.9531 12.9609 27.5703 12.6328 27.2422C12.3047 26.9141 11.9219 26.75 11.4844 26.75L8.20312 26.75C7.76562 26.75 7.38281 26.9141 7.05469 27.2422C6.72656 27.5703 6.5625 27.9531 6.5625 28.3906Z" fill="#2EBB77" fill-opacity="1.000000" fill-rule="nonzero"/>
	</g>
</svg>
