<svg width="56.000000" height="57.000000" viewBox="0 0 56 57" fill="none" xmlns="http://www.w3.org/2000/svg" xmlns:xlink="http://www.w3.org/1999/xlink">
	<desc>
			Created with Pixso.
	</desc>
	<defs>
		<clipPath id="clip8360_20786">
			<rect id="Link" width="56.000000" height="57.000000" transform="matrix(1 0 0 -1 0 57)" fill="white" fill-opacity="0"/>
		</clipPath>
	</defs>
	<g clip-path="url(#clip8360_20786)">
		<path id="Vector" d="M54.9609 9.41406L42.7109 4.16406C42.4922 4.05469 42.2559 4 42 4C41.7441 4 41.5078 4.05469 41.2891 4.16406L29.0391 9.41406C28.748 9.52344 28.502 9.72388 28.3008 10.0156C28.0996 10.3074 28 10.6355 28 11L28 18C28 20.4062 28.2363 22.5754 28.7109 24.5078C29.1855 26.4766 29.9414 28.2812 30.9805 29.9219C32.0195 31.5625 33.377 33.1121 35.0547 34.5703C36.6953 35.9922 38.7188 37.3958 41.125 38.7812C41.2715 38.8542 41.416 38.9089 41.5625 38.9453C41.709 38.9817 41.8535 39 42 39C42.1465 39 42.291 38.9817 42.4375 38.9453C42.584 38.9089 42.7285 38.8542 42.875 38.7812C45.2812 37.3958 47.3047 35.9922 48.9453 34.5703C50.623 33.1484 51.9805 31.6082 53.0195 29.9492C54.0586 28.2903 54.8145 26.4949 55.2891 24.5625C55.7637 22.5938 56 20.4062 56 18L56 11C56 10.6355 55.9004 10.3074 55.6992 10.0156C55.498 9.72388 55.252 9.52344 54.9609 9.41406ZM52.5 18C52.5 20.0051 52.3184 21.8098 51.9531 23.4141C51.5879 25.0547 50.9961 26.5496 50.1758 27.8984C49.3555 29.2473 48.2715 30.5051 46.9219 31.6719C45.6094 32.875 43.9688 34.0598 42 35.2266C40.0312 34.0598 38.3906 32.875 37.0781 31.6719C35.7285 30.5051 34.6445 29.2383 33.8242 27.8711C33.0039 26.5039 32.4121 25.0183 32.0469 23.4141C31.6816 21.8098 31.5 20.0051 31.5 18L31.5 12.1484L42 7.66406L52.5 12.1484L52.5 18ZM52.5 37.25L52.5 49.5L3.5 49.5L3.5 28.5L22.75 28.5C23.2246 28.5 23.6348 28.3269 23.9805 27.9805C24.3262 27.634 24.5 27.2239 24.5 26.75C24.5 26.2761 24.3262 25.866 23.9805 25.5195C23.6348 25.1731 23.2246 25 22.75 25L3.5 25L3.5 18L22.75 18C23.2246 18 23.6348 17.8269 23.9805 17.4805C24.3262 17.134 24.5 16.7239 24.5 16.25C24.5 15.7761 24.3262 15.366 23.9805 15.0195C23.6348 14.6731 23.2246 14.5 22.75 14.5L3.5 14.5C2.55273 14.5 1.73242 14.8372 1.03906 15.5117C0.345703 16.1863 0 17.0156 0 18L0 49.5C0 50.448 0.345703 51.2683 1.03906 51.9609C1.73242 52.6536 2.55273 53 3.5 53L52.5 53C53.4473 53 54.2676 52.6536 54.9609 51.9609C55.6543 51.2683 56 50.448 56 49.5L56 37.25C56 36.7761 55.8262 36.366 55.4805 36.0195C55.1348 35.6731 54.7246 35.5 54.25 35.5C53.7754 35.5 53.3652 35.6731 53.0195 36.0195C52.6738 36.366 52.5 36.7761 52.5 37.25ZM8.75 35.5C8.27539 35.5 7.86523 35.6731 7.51953 36.0195C7.17383 36.366 7 36.7761 7 37.25C7 37.7239 7.17383 38.134 7.51953 38.4805C7.86523 38.8269 8.27539 39 8.75 39L15.75 39C16.2246 39 16.6348 38.8269 16.9805 38.4805C17.3262 38.134 17.5 37.7239 17.5 37.25C17.5 36.7761 17.3262 36.366 16.9805 36.0195C16.6348 35.6731 16.2246 35.5 15.75 35.5L8.75 35.5ZM45.8828 15.1562L40.3594 22.0469L38.2266 18.7656C37.9355 18.3645 37.5527 18.1184 37.0781 18.0273C36.6035 17.9363 36.166 18.0183 35.7656 18.2734C35.3652 18.5652 35.1191 18.948 35.0273 19.4219C34.9355 19.8958 35.0176 20.3333 35.2734 20.7344L38.7734 25.9844C38.9551 26.2031 39.166 26.3855 39.4023 26.5312C39.6387 26.677 39.9043 26.75 40.1953 26.75L40.25 26.75C40.5059 26.75 40.752 26.6953 40.9883 26.5859C41.2246 26.4766 41.4355 26.3125 41.6172 26.0938L48.6172 17.3438C48.9082 16.9792 49.0273 16.5508 48.9727 16.0586C48.918 15.5664 48.709 15.1746 48.3438 14.8828C47.9785 14.5911 47.5508 14.4727 47.0586 14.5273C46.5664 14.582 46.1738 14.7917 45.8828 15.1562Z" fill="#2EBB77" fill-opacity="1.000000" fill-rule="nonzero"/>
	</g>
</svg>
